<svg width="30" height="30" viewBox="0 0 500 500" xmlns="http://www.w3.org/2000/svg">
    <path fill="#9b7700" d="M250 150c-55.2 0-100 44.8-100 100s44.8 100 100 100 100-44.8 100-100-44.8-100-100-100zm0 180c-44.1 0-80-35.9-80-80s35.9-80 80-80 80 35.9 80 80-35.9 80-80 80z"/>
    <path fill="#9b7700" d="M250 120c-71.7 0-130 58.3-130 130s58.3 130 130 130 130-58.3 130-130-58.3-130-130-130zm0 240c-60.7 0-110-49.3-110-110s49.3-110 110-110 110 49.3 110 110-49.3 110-110 110z"/>
    <path fill="#9b7700" d="M250 90c-88.2 0-160 71.8-160 160s71.8 160 160 160 160-71.8 160-160-71.8-160-160-160zm0 300c-77.2 0-140-62.8-140-140s62.8-140 140-140 140 62.8 140 140-62.8 140-140 140z"/>
</svg> 